<svg xmlns="http://www.w3.org/2000/svg" width="200" height="50" viewBox="0 0 200 50"><rect width="100%" height="100%" fill="#8a2be2"/><path fill="#ffffff" d="M46.92 18.945h1.84l-4.96 12.29h-2.07l-4.96-12.29h1.84q.29 0 .48.14.19.15.28.38l2.9 7.49q.14.37.28.81.13.44.25.91.1-.47.22-.91t.26-.81l2.88-7.49q.07-.2.27-.36t.49-.16m6.65 3.43q.96 0 1.76.32.79.31 1.36.89.56.58.87 1.41t.31 1.86q0 1.04-.31 1.87-.31.84-.87 1.42-.57.59-1.36.9-.8.32-1.76.32-.98 0-1.78-.32-.8-.31-1.37-.9-.56-.58-.87-1.42-.31-.83-.31-1.87 0-1.03.31-1.86t.87-1.41q.57-.58 1.37-.89.8-.32 1.78-.32m0 7.37q1.08 0 1.61-.73.52-.73.52-2.14t-.52-2.15q-.53-.74-1.61-.74-1.11 0-1.64.74-.53.75-.53 2.15t.53 2.14q.53.73 1.64.73m12.17-7.23v.87q0 .22-.08.43t-.2.35l-4.14 5.45h4.29v1.62h-6.73v-.88q0-.14.07-.34.06-.2.2-.38l4.18-5.51h-4.21v-1.61zm3.2 3.36h3.96q0-.41-.11-.77-.12-.36-.35-.64-.23-.27-.58-.43-.35-.15-.82-.15-.91 0-1.43.52-.52.51-.67 1.47m5.36 1.26h-5.4q.05.67.24 1.16.18.49.49.81t.73.48q.42.15.93.15t.88-.12q.37-.11.64-.26.28-.14.49-.26t.4-.12q.27 0 .39.19l.61.77q-.35.41-.79.68-.43.28-.9.45-.47.16-.96.23t-.95.07q-.91 0-1.69-.3-.78-.31-1.36-.9t-.91-1.46-.33-2.02q0-.89.29-1.68.29-.78.83-1.36.54-.59 1.31-.93.78-.34 1.76-.34.82 0 1.52.27.7.26 1.2.77.5.5.79 1.24.28.73.28 1.68 0 .47-.1.64-.1.16-.39.16m7.86-3.68-.48.76q-.08.13-.17.19-.1.06-.24.06-.16 0-.33-.09l-.4-.19q-.23-.11-.53-.19-.29-.09-.69-.09-.62 0-.97.27-.36.26-.36.68 0 .29.19.48.18.19.48.33.3.15.69.26.38.12.77.25.4.14.78.31.38.18.69.44.3.27.48.65.18.37.18.9 0 .63-.22 1.16-.23.53-.67.92-.44.38-1.09.6t-1.5.22q-.45 0-.88-.08-.43-.09-.83-.23-.39-.14-.73-.34-.33-.2-.59-.43l.49-.79q.09-.15.22-.23.13-.07.32-.07.2 0 .37.11t.4.24q.23.12.54.23.31.12.79.12.37 0 .64-.09t.44-.24q.18-.14.26-.33t.08-.4q0-.3-.18-.5-.19-.2-.49-.34t-.69-.26q-.38-.11-.79-.25-.4-.14-.79-.32-.38-.18-.69-.46-.3-.28-.48-.69t-.18-.99q0-.53.21-1.02.21-.48.62-.84.42-.36 1.03-.58.62-.22 1.43-.22.9 0 1.64.3t1.23.78m13.89-2.69h-5.46v3.64h4.61v1.82h-4.61v5.01H88.3v-12.29h7.75zm3.19 5.11h3.97q0-.41-.12-.77-.11-.36-.34-.64-.23-.27-.59-.43-.35-.15-.82-.15-.91 0-1.43.52-.52.51-.67 1.47m5.36 1.26h-5.4q.05.67.24 1.16t.49.81q.31.32.73.48.42.15.93.15t.88-.12q.37-.11.65-.26.27-.14.48-.26t.4-.12q.27 0 .4.19l.6.77q-.35.41-.78.68-.44.28-.91.45-.47.16-.96.23t-.95.07q-.91 0-1.69-.3-.78-.31-1.36-.9t-.91-1.46-.33-2.02q0-.89.29-1.68.29-.78.83-1.36.54-.59 1.32-.93.77-.34 1.75-.34.83 0 1.52.27.7.26 1.2.77.5.5.79 1.24.28.73.28 1.68 0 .47-.1.64-.1.16-.39.16m4.16 4.1h-2.09v-8.72h1.28q.41 0 .53.38l.14.65q.23-.26.48-.47t.54-.37q.28-.15.61-.24t.72-.09q.82 0 1.35.45t.8 1.18q.2-.43.51-.74.3-.31.67-.5.36-.2.78-.29.41-.1.82-.1.73 0 1.29.22t.94.65q.38.42.58 1.04.2.61.2 1.4v5.55h-2.1v-5.55q0-.83-.36-1.25-.37-.43-1.07-.43-.33 0-.6.12-.28.11-.49.31-.2.21-.32.53-.12.31-.12.72v5.55h-2.11v-5.55q0-.88-.35-1.28-.36-.4-1.04-.4-.45 0-.85.23t-.74.62zm12.21-8.72h2.11v8.72h-2.11zm2.4-2.54q0 .27-.11.51t-.3.41q-.18.18-.43.29-.24.1-.52.1-.27 0-.52-.1-.24-.11-.42-.29-.18-.17-.28-.41-.11-.24-.11-.51 0-.28.11-.53.1-.25.28-.42.18-.18.42-.29.25-.11.52-.11.28 0 .52.11.25.11.43.29.19.17.3.42t.11.53m3.67 2.92.14.69q.27-.26.56-.49.29-.22.62-.38t.7-.25q.38-.09.82-.09.71 0 1.27.25.55.24.92.68.37.43.56 1.04t.19 1.34v5.55h-2.1v-5.55q0-.8-.37-1.24-.36-.44-1.11-.44-.54 0-1.02.25-.47.25-.9.67v6.31h-2.1v-8.72h1.28q.41 0 .54.38m7.84-.38h2.1v8.72h-2.1zm2.39-2.54q0 .27-.11.51t-.29.41q-.18.18-.43.29-.25.1-.53.1-.27 0-.51-.1-.24-.11-.42-.29-.18-.17-.29-.41-.1-.24-.1-.51 0-.28.1-.53.11-.25.29-.42.18-.18.42-.29t.51-.11q.28 0 .53.11t.43.29q.18.17.29.42t.11.53m3.68 2.92.14.69q.26-.26.56-.49.29-.22.62-.38.32-.16.7-.25.37-.09.81-.09.72 0 1.27.25.55.24.92.68.37.43.56 1.04.2.61.2 1.34v5.55h-2.1v-5.55q0-.8-.37-1.24-.36-.44-1.11-.44-.55 0-1.02.25-.48.25-.9.67v6.31h-2.1v-8.72h1.28q.41 0 .54.38m12.37 6.09v-1.47q-.91.04-1.53.15-.62.12-.99.3-.38.18-.54.41-.16.24-.16.52 0 .55.33.79.32.24.85.24.65 0 1.12-.23.47-.24.92-.71m-4.44-4.58-.37-.68q1.51-1.37 3.62-1.37.77 0 1.37.25t1.02.7q.42.44.63 1.06.22.62.22 1.36v5.51h-.95q-.3 0-.46-.09t-.26-.36l-.18-.63q-.33.3-.65.52-.31.23-.65.38t-.73.24q-.39.08-.85.08-.56 0-1.02-.15-.47-.15-.81-.45t-.53-.74-.19-1.03q0-.33.11-.66.12-.32.37-.62t.65-.56.98-.46 1.35-.32q.78-.12 1.77-.15v-.51q0-.87-.37-1.29-.38-.43-1.08-.43-.51 0-.85.12-.33.12-.59.27-.25.15-.46.27t-.46.12q-.23 0-.38-.12-.15-.11-.25-.26m14.26-.95-.48.76q-.08.13-.18.19-.09.06-.23.06-.16 0-.33-.09l-.4-.19q-.23-.11-.53-.19-.29-.09-.69-.09-.62 0-.97.27-.36.26-.36.68 0 .29.19.48.18.19.48.33.3.15.69.26.38.12.77.25.4.14.78.31.38.18.69.44.3.27.48.65.18.37.18.9 0 .63-.22 1.16-.23.53-.67.92-.44.38-1.09.6t-1.5.22q-.45 0-.88-.08-.43-.09-.83-.23-.39-.14-.73-.34-.33-.2-.59-.43l.49-.79q.09-.15.22-.23.12-.07.32-.07t.37.11.4.24q.23.12.54.23.31.12.79.12.37 0 .64-.09t.44-.24q.18-.14.26-.33t.08-.4q0-.3-.18-.5-.19-.2-.49-.34t-.69-.26q-.38-.11-.79-.25-.4-.14-.79-.32-.38-.18-.69-.46-.3-.28-.48-.69t-.18-.99q0-.53.21-1.02.21-.48.62-.84.42-.36 1.03-.58.62-.22 1.43-.22.9 0 1.64.3t1.23.78"/></svg>